<svg width="152" height="48" viewBox="0 0 152 48" fill="none" xmlns="http://www.w3.org/2000/svg">
<path d="M18.2083 0.691406L34.4261 13.0377L32.8043 14.2724L16.5865 1.92604L18.2083 0.691406Z" fill="#A5A6F6"/>
<path d="M31.1897 13.0254L47.4076 0.679069L49.0294 1.9137L32.8115 14.26L31.1897 13.0254V13.0254Z" fill="#A5A6F6"/>
<path d="M47.4524 0.692871L63.6703 13.0392L62.0485 14.2738L45.8306 1.9275L47.4524 0.692871V0.692871Z" fill="#A5A6F6"/>
<path d="M60.4614 13.0322L76.6793 0.685899L78.3011 1.92053L62.0832 14.2669L60.4614 13.0322V13.0322Z" fill="#A5A6F6"/>
<path d="M76.6952 0.692383L92.9131 13.0387L91.2913 14.2733L75.0734 1.92701L76.6952 0.692383V0.692383Z" fill="#A5A6F6"/>
<path d="M89.6158 13.0317L105.834 0.685419L107.456 1.92005L91.2376 14.2664L89.6158 13.0317Z" fill="#A5A6F6"/>
<path d="M1.99097 13.042L18.2089 0.695671L19.8306 1.9303L3.61276 14.2766L1.99097 13.042V13.042Z" fill="#A5A6F6"/>
<path d="M105.906 0.736816L122.124 13.0831L120.503 14.3178L104.285 1.97145L105.906 0.736816V0.736816Z" fill="#A5A6F6"/>
<path d="M118.916 13.0762L135.134 0.729846L136.755 1.96448L120.538 14.3108L118.916 13.0762Z" fill="#A5A6F6"/>
<path d="M135.15 0.73584L151.367 13.0822L149.746 14.3168L133.528 1.97047L135.15 0.73584V0.73584Z" fill="#A5A6F6"/>
<path d="M27.2 20.55V38H23.7V30.575H16.225V38H12.725V20.55H16.225V27.725H23.7V20.55H27.2ZM42.8949 24.15L34.3199 44.55H30.5949L33.5949 37.65L28.0449 24.15H31.9699L35.5449 33.825L39.1699 24.15H42.8949ZM47.2816 26.15C47.7316 25.5167 48.3483 24.9917 49.1316 24.575C49.9316 24.1417 50.84 23.925 51.8566 23.925C53.04 23.925 54.1066 24.2167 55.0566 24.8C56.0233 25.3833 56.7816 26.2167 57.3316 27.3C57.8983 28.3667 58.1816 29.6083 58.1816 31.025C58.1816 32.4417 57.8983 33.7 57.3316 34.8C56.7816 35.8833 56.0233 36.725 55.0566 37.325C54.1066 37.925 53.04 38.225 51.8566 38.225C50.84 38.225 49.94 38.0167 49.1566 37.6C48.39 37.1833 47.765 36.6583 47.2816 36.025V44.6H43.7816V24.15H47.2816V26.15ZM54.6066 31.025C54.6066 30.1917 54.4316 29.475 54.0816 28.875C53.7483 28.2583 53.2983 27.7917 52.7316 27.475C52.1816 27.1583 51.5816 27 50.9316 27C50.2983 27 49.6983 27.1667 49.1316 27.5C48.5816 27.8167 48.1316 28.2833 47.7816 28.9C47.4483 29.5167 47.2816 30.2417 47.2816 31.075C47.2816 31.9083 47.4483 32.6333 47.7816 33.25C48.1316 33.8667 48.5816 34.3417 49.1316 34.675C49.6983 34.9917 50.2983 35.15 50.9316 35.15C51.5816 35.15 52.1816 34.9833 52.7316 34.65C53.2983 34.3167 53.7483 33.8417 54.0816 33.225C54.4316 32.6083 54.6066 31.875 54.6066 31.025ZM72.6 30.775C72.6 31.275 72.5667 31.725 72.5 32.125H62.375C62.4583 33.125 62.8083 33.9083 63.425 34.475C64.0417 35.0417 64.8 35.325 65.7 35.325C67 35.325 67.925 34.7667 68.475 33.65H72.25C71.85 34.9833 71.0833 36.0833 69.95 36.95C68.8167 37.8 67.425 38.225 65.775 38.225C64.4417 38.225 63.2417 37.9333 62.175 37.35C61.125 36.75 60.3 35.9083 59.7 34.825C59.1167 33.7417 58.825 32.4917 58.825 31.075C58.825 29.6417 59.1167 28.3833 59.7 27.3C60.2833 26.2167 61.1 25.3833 62.15 24.8C63.2 24.2167 64.4083 23.925 65.775 23.925C67.0917 23.925 68.2667 24.2083 69.3 24.775C70.35 25.3417 71.1583 26.15 71.725 27.2C72.3083 28.2333 72.6 29.425 72.6 30.775ZM68.975 29.775C68.9583 28.875 68.6333 28.1583 68 27.625C67.3667 27.075 66.5917 26.8 65.675 26.8C64.8083 26.8 64.075 27.0667 63.475 27.6C62.8917 28.1167 62.5333 28.8417 62.4 29.775H68.975ZM77.6547 26.3C78.1047 25.5667 78.688 24.9917 79.4047 24.575C80.138 24.1583 80.9714 23.95 81.9047 23.95V27.625H80.9797C79.8797 27.625 79.0464 27.8833 78.4797 28.4C77.9297 28.9167 77.6547 29.8167 77.6547 31.1V38H74.1547V24.15H77.6547V26.3ZM86.7621 35.225H92.5121V38H83.2621V20.55H86.7621V35.225ZM95.5117 22.5C94.8951 22.5 94.3784 22.3083 93.9617 21.925C93.5617 21.525 93.3617 21.0333 93.3617 20.45C93.3617 19.8667 93.5617 19.3833 93.9617 19C94.3784 18.6 94.8951 18.4 95.5117 18.4C96.1284 18.4 96.6367 18.6 97.0367 19C97.4534 19.3833 97.6617 19.8667 97.6617 20.45C97.6617 21.0333 97.4534 21.525 97.0367 21.925C96.6367 22.3083 96.1284 22.5 95.5117 22.5ZM97.2367 24.15V38H93.7367V24.15H97.2367ZM107.37 23.95C109.02 23.95 110.353 24.475 111.37 25.525C112.386 26.5583 112.895 28.0083 112.895 29.875V38H109.395V30.35C109.395 29.25 109.12 28.4083 108.57 27.825C108.02 27.225 107.27 26.925 106.32 26.925C105.353 26.925 104.586 27.225 104.02 27.825C103.47 28.4083 103.195 29.25 103.195 30.35V38H99.6947V24.15H103.195V25.875C103.661 25.275 104.253 24.8083 104.97 24.475C105.703 24.125 106.503 23.95 107.37 23.95ZM123.423 38L118.723 32.1V38H115.223V19.5H118.723V30.025L123.373 24.15H127.923L121.823 31.1L127.973 38H123.423ZM134.123 38.225C132.989 38.225 131.973 38.025 131.073 37.625C130.173 37.2083 129.456 36.65 128.923 35.95C128.406 35.25 128.123 34.475 128.073 33.625H131.598C131.664 34.1583 131.923 34.6 132.373 34.95C132.839 35.3 133.414 35.475 134.098 35.475C134.764 35.475 135.281 35.3417 135.648 35.075C136.031 34.8083 136.223 34.4667 136.223 34.05C136.223 33.6 135.989 33.2667 135.523 33.05C135.073 32.8167 134.348 32.5667 133.348 32.3C132.314 32.05 131.464 31.7917 130.798 31.525C130.148 31.2583 129.581 30.85 129.098 30.3C128.631 29.75 128.398 29.0083 128.398 28.075C128.398 27.3083 128.614 26.6083 129.048 25.975C129.498 25.3417 130.131 24.8417 130.948 24.475C131.781 24.1083 132.756 23.925 133.873 23.925C135.523 23.925 136.839 24.3417 137.823 25.175C138.806 25.9917 139.348 27.1 139.448 28.5H136.098C136.048 27.95 135.814 27.5167 135.398 27.2C134.998 26.8667 134.456 26.7 133.773 26.7C133.139 26.7 132.648 26.8167 132.298 27.05C131.964 27.2833 131.798 27.6083 131.798 28.025C131.798 28.4917 132.031 28.85 132.498 29.1C132.964 29.3333 133.689 29.575 134.673 29.825C135.673 30.075 136.498 30.3333 137.148 30.6C137.798 30.8667 138.356 31.2833 138.823 31.85C139.306 32.4 139.556 33.1333 139.573 34.05C139.573 34.85 139.348 35.5667 138.898 36.2C138.464 36.8333 137.831 37.3333 136.998 37.7C136.181 38.05 135.223 38.225 134.123 38.225Z" fill="#19192E"/>
</svg>
