<?xml version="1.0" encoding="utf-8"?>
<!-- Generator: Adobe Illustrator 19.0.1, SVG Export Plug-In . SVG Version: 6.00 Build 0)  -->
<svg version="1.1" id="Layer_1" xmlns="http://www.w3.org/2000/svg" xmlns:xlink="http://www.w3.org/1999/xlink" x="0px" y="0px"
	 viewBox="0 0 700 700" style="enable-background:new 0 0 700 700;" xml:space="preserve">
<style type="text/css">
	.st0{fill:#FF4500;}
	.st1{fill:#FFFFFF;}
</style>
<g>
	<g id="XMLID_1_">
		<g>
			<path class="st0" d="M653.6,224.5c16.5,39.8,24.7,81.7,24.7,125.5s-8.3,85.7-24.7,125.5c-16.5,39.8-40.3,75.4-71.5,106.6
				c-31.2,31.2-66.7,55.1-106.6,71.5c-39.9,16.5-81.7,24.7-125.5,24.7s-85.7-8.3-125.5-24.7c-39.8-16.5-75.4-40.3-106.6-71.5
				c-31.2-31.2-55.1-66.7-71.6-106.6C29.9,435.7,21.6,393.8,21.6,350s8.2-85.7,24.7-125.5c16.5-39.8,40.3-75.4,71.6-106.6
				s66.7-55.1,106.6-71.6c39.8-16.5,81.7-24.7,125.5-24.7s85.7,8.3,125.5,24.7c39.8,16.5,75.4,40.3,106.6,71.6
				C613.3,149.1,637.2,184.6,653.6,224.5z M515.3,352.3c0-4.9-1-10-3-15.3c-5.3-17.5-15.6-26.2-30.9-26.2c-3.8,0-8,0.4-12.6,1.3
				c-3.5,0.9-8.8,4-15.6,9.3c-20.4-16.6-52.1-27.1-95.3-31.6c10.2-46.5,15.8-71.6,16.9-75.4l52.1,10.6c2.7,17,11,25.6,24.9,25.6
				c17.9,0,26.9-7.7,26.9-23.2l-0.3-7.6c-2.9-15.1-11-22.6-24.2-22.6l-6.3,1c-3.1,0.2-6.7,2.4-10.8,6.5c-4.1,4.1-7.1,6.4-9.1,6.8
				c-1.5,0-12-2.1-31.2-6.3c-18.6-3.8-28.9-5.6-30.9-5.6c-2.7,1.3-5.3,8.2-8,20.6l-14.3,70.4c-26.3,0.4-52.1,6.9-77.4,19.3
				l-20.3,10.6c0-0.4-2-2-6-4.7c-6.4-4-13-6-19.6-6c-8.9,0-17.2,4.1-25.1,12.5c-7.9,8.3-11.8,17-11.8,26.1c0,6,1.9,12,5.7,17.9
				c0.2,0,5.6,5.3,16.3,15.9l-0.3,9c0,30.5,16.3,56,48.8,76.4c28.1,17.5,58.8,26.2,92,26.2c19.9,0,40.3-2.9,61.1-8.6
				c58-17.1,87-50,87-99v-5C508.3,375.2,515.3,365.6,515.3,352.3z"/>
			<path class="st1" d="M512.4,337c2,5.3,3,10.4,3,15.3c0,13.3-7.1,22.9-21.2,28.9v5c0,48.9-29,81.9-87,99
				c-20.8,5.8-41.2,8.6-61.1,8.6c-33.2,0-63.9-8.7-92-26.2c-32.5-20.4-48.8-45.8-48.8-76.4l0.3-9c-10.6-10.6-16.1-15.9-16.3-15.9
				c-3.8-6-5.7-11.9-5.7-17.9c0-9.1,3.9-17.8,11.8-26.1c7.8-8.3,16.2-12.5,25.1-12.5c6.6,0,13.2,2,19.6,6c4,2.7,6,4.2,6,4.7
				l20.3-10.6c25.2-12.4,51-18.8,77.4-19.3l14.3-70.4c2.6-12.4,5.3-19.3,8-20.6c2,0,12.3,1.9,30.9,5.6c19.3,4.2,29.7,6.3,31.2,6.3
				c2-0.4,5-2.7,9.1-6.8c4.1-4.1,7.7-6.3,10.8-6.5l6.3-1c13.3,0,21.4,7.5,24.2,22.6l0.3,7.6c0,15.5-9,23.2-26.9,23.2
				c-13.9,0-22.2-8.5-24.9-25.6l-52.1-10.6c-1.1,3.8-6.8,28.9-16.9,75.4c43.2,4.4,74.9,14.9,95.3,31.6c6.9-5.3,12.1-8.4,15.6-9.3
				c4.6-0.9,8.9-1.3,12.6-1.3C496.8,310.8,507,319.6,512.4,337z M431.4,377.9c0-2.9-0.1-5.6-0.3-8.3c-2.9-14.2-11.5-21.3-25.9-21.3
				c-16.2,1.3-24.2,10.1-24.2,26.2c0,6.9,2.7,12.7,8.1,17.4c5.4,4.8,11.2,7.1,17.4,7.1c3.1,0,6-0.6,8.6-1.7
				C425.9,394.4,431.4,387.9,431.4,377.9z M413.1,433.7c-1.1-0.4-2.2-0.7-3.3-0.7c-3.1,0-8.8,2.1-16.9,6.3
				c-15.9,8.4-31.1,12.6-45.5,12.6c-19,0-36.7-7-53.1-20.9c-4.4,1.3-6.6,3.1-6.6,5.3c0,2,1.1,4.1,3.3,6.3
				c5.1,4.6,11.2,8.4,18.3,11.3c13.5,5.1,26.9,7.6,40.2,7.6c14.4,0,28.6-2.8,42.7-8.3C406.1,447.7,413.1,441.2,413.1,433.7z
				 M301.2,396.8c12-3.1,17.9-9.9,17.9-20.3c0-18.8-9.1-28.2-27.2-28.2c-17,1.1-25.6,7.9-25.6,20.3c0,4,1,8.9,3,14.6
				c4.2,10.2,11.2,15.3,20.9,15.3C293.5,398.5,297.2,397.9,301.2,396.8z"/>
			<path class="st0" d="M431,369.6c0.2,2.7,0.3,5.4,0.3,8.3c0,10-5.4,16.5-16.3,19.6c-2.7,1.1-5.5,1.7-8.6,1.7
				c-6.2,0-12-2.4-17.4-7.1c-5.4-4.8-8.1-10.6-8.1-17.4c0-16.1,8.1-24.9,24.2-26.2C419.5,348.3,428.1,355.4,431,369.6z"/>
			<path class="st0" d="M409.8,433c1.1,0,2.2,0.2,3.3,0.7c0,7.5-7,14.1-21.1,19.6c-14.1,5.5-28.3,8.3-42.7,8.3
				c-13.3,0-26.7-2.5-40.2-7.6c-7.1-2.9-13.2-6.6-18.3-11.3c-2.2-2.2-3.3-4.3-3.3-6.3c0-2.2,2.2-4,6.6-5.3
				c16.4,13.9,34.1,20.9,53.1,20.9c14.4,0,29.6-4.2,45.5-12.6C401,435.1,406.7,433,409.8,433z"/>
			<path class="st0" d="M319.1,376.6c0,10.4-6,17.2-17.9,20.3c-4,1.1-7.6,1.7-11,1.7c-9.7,0-16.7-5.1-20.9-15.3
				c-2-5.8-3-10.6-3-14.6c0-12.4,8.5-19.1,25.6-20.3C310,348.3,319.1,357.8,319.1,376.6z"/>
		</g>
	</g>
</g>
</svg>
